<svg width="16" height="16" viewBox="0 0 16 16" fill="none" xmlns="http://www.w3.org/2000/svg">
<g clip-path="url(#clip0_225_163)">
<path d="M7.59329 3.6751L7.19062 3.11309C6.93668 2.75867 6.65147 2.45931 6.34089 2.21695L6.34086 2.21693C5.73074 1.74076 5.04595 1.50216 4.29309 1.49886C3.27262 1.49438 2.33917 1.89699 1.65532 2.63217L7.59329 3.6751ZM7.59329 3.6751L8.00092 3.11667M7.59329 3.6751L8.00092 3.11667M8.00092 3.11667C8.25807 2.76438 8.54578 2.46763 8.85838 2.228C9.47279 1.75718 10.1597 1.52461 10.9125 1.52791C11.933 1.53239 12.8628 1.94318 13.5401 2.68436C14.2113 3.41878 14.5901 4.43298 14.5851 5.5519C14.5802 6.67697 14.163 7.72728 13.1979 8.88134L13.1979 8.88136C12.319 9.93249 11.0476 11.0085 9.51966 12.299L9.51961 12.299L9.50605 12.3105C8.99144 12.7452 8.4066 13.2393 7.79952 13.7655L7.79926 13.7657C7.73015 13.8257 7.64114 13.8589 7.54862 13.8584C7.45611 13.858 7.36749 13.8242 7.2986 13.7633L7.29827 13.763C6.6913 13.2276 6.10698 12.7252 5.5936 12.2837L5.59172 12.2821L5.59169 12.2821M8.00092 3.11667L5.59169 12.2821M5.59169 12.2821C4.07492 10.978 2.81297 9.89076 1.94333 8.83205C0.988402 7.66941 0.580342 6.61548 0.58528 5.49056C0.590192 4.37154 0.977854 3.36072 1.65528 2.63222L5.59169 12.2821Z" stroke="#EB5757"/>
</g>
<defs>
<clipPath id="clip0_225_163">
<rect width="15" height="15" fill="white" transform="translate(0.108673 0.160156) rotate(0.251496)"/>
</clipPath>
</defs>
</svg>
