<svg width="19" height="18" viewBox="0 0 19 18" fill="none" xmlns="http://www.w3.org/2000/svg">
<path d="M14.7574 3.62178C14.0614 2.92064 13.233 2.36477 12.3203 1.98646C11.4076 1.60814 10.4289 1.41492 9.44088 1.41801C5.29967 1.41801 1.92908 4.7886 1.92908 8.93266C1.92908 10.2568 2.27599 11.5516 2.93286 12.689L1.86652 16.5838L5.85038 15.5383C6.95176 16.1382 8.18576 16.453 9.43993 16.4539H9.44278C13.584 16.4539 16.9574 13.0833 16.9574 8.93929C16.9599 7.95166 16.7667 6.97331 16.389 6.06077C16.0112 5.14824 15.4564 4.3196 14.7565 3.62273L14.7574 3.62178ZM9.44278 15.1857C8.3235 15.1859 7.22478 14.885 6.26175 14.3146L6.03332 14.1781L3.66935 14.7971L4.30063 12.4928L4.15276 12.2559C3.52504 11.2613 3.19333 10.1087 3.19637 8.93266C3.19837 7.27588 3.85761 5.68757 5.0294 4.51632C6.20119 3.34507 7.78979 2.68655 9.44657 2.6853C11.1139 2.6853 12.6845 3.33743 13.8627 4.51562C14.4441 5.09494 14.9049 5.78373 15.2186 6.5422C15.5323 7.30068 15.6925 8.11378 15.6901 8.93455C15.6873 12.3819 12.8854 15.1848 9.44278 15.1848V15.1857ZM12.8674 10.5061C12.6807 10.4113 11.7565 9.95824 11.5849 9.89569C11.4134 9.83313 11.2883 9.8009 11.1613 9.99047C11.0371 10.1772 10.6759 10.6009 10.566 10.7279C10.456 10.8521 10.347 10.8701 10.1603 10.7753C9.97358 10.6805 9.366 10.4824 8.64942 9.8426C8.09207 9.34498 7.71388 8.72887 7.60392 8.54214C7.49397 8.35541 7.5916 8.25209 7.68734 8.16015C7.77359 8.07674 7.87407 7.94119 7.96885 7.83124C8.06364 7.72129 8.09302 7.64451 8.15558 7.5175C8.21814 7.39333 8.18781 7.28338 8.14041 7.18859C8.09302 7.0938 7.71672 6.16964 7.56317 5.79334C7.41246 5.42557 7.25511 5.47675 7.13947 5.47012C7.02952 5.46443 6.90535 5.46443 6.78118 5.46443C6.65701 5.46443 6.45227 5.51182 6.28071 5.69855C6.10915 5.88528 5.62289 6.3412 5.62289 7.26537C5.62289 8.18953 6.29493 9.08147 6.38971 9.20848C6.4845 9.33265 7.71388 11.2312 9.59728 12.0435C10.0447 12.236 10.3944 12.3516 10.6665 12.4407C11.1167 12.5829 11.5252 12.562 11.8485 12.5146C12.2096 12.4615 12.9593 12.0616 13.1167 11.6227C13.274 11.1838 13.274 10.8085 13.2266 10.7308C13.1821 10.6473 13.0579 10.6009 12.8684 10.5052L12.8674 10.5061Z" fill="#1E2123"/>
</svg>
