<svg width="15" height="16" viewBox="0 0 15 16" fill="none" xmlns="http://www.w3.org/2000/svg">
<g clip-path="url(#clip0_203_867)">
<path d="M12.4621 2.71394C11.3633 1.03952 9.54935 0.0976563 7.50866 0.0976562C5.4854 0.0976562 3.67145 1.03952 2.53773 2.71394C1.404 4.35347 1.14238 6.44649 1.84005 8.27789C2.03191 8.76626 2.32842 9.27207 2.71214 9.72556L7.12493 14.9232C7.22959 15.0279 7.33424 15.0977 7.49121 15.0977C7.64819 15.0977 7.75284 15.0279 7.85749 14.9232L12.2877 9.72556C12.6714 9.27207 12.9854 8.7837 13.1598 8.27789C13.8575 6.44649 13.5959 4.35347 12.4621 2.71394ZM7.50866 8.88835C6.00866 8.88835 4.77028 7.64998 4.77028 6.14998C4.77028 4.64998 6.00866 3.41161 7.50866 3.41161C9.00866 3.41161 10.247 4.64998 10.247 6.14998C10.247 7.64998 9.0261 8.88835 7.50866 8.88835Z" fill="url(#paint0_linear_203_867)"/>
</g>
<defs>
<linearGradient id="paint0_linear_203_867" x1="1.4552" y1="0.847657" x2="15.7624" y2="4.16693" gradientUnits="userSpaceOnUse">
<stop stop-color="#FFD54F"/>
<stop offset="1" stop-color="#FEC100"/>
</linearGradient>
<clipPath id="clip0_203_867">
<rect width="15" height="15" fill="white" transform="translate(0 0.0976562)"/>
</clipPath>
</defs>
</svg>
