<svg width="18" height="18" viewBox="0 0 18 18" fill="none" xmlns="http://www.w3.org/2000/svg">
<g clip-path="url(#clip0_203_822)">
<path d="M14.8583 9.76627C14.569 9.40103 14.6518 9.23853 14.8583 8.91205C14.862 8.90832 17.2495 5.60919 17.4955 4.49035L17.497 4.48961C17.6192 4.08188 17.497 3.78223 16.9059 3.78223H14.9499C14.452 3.78223 14.2224 4.03939 14.0994 4.32711C14.0994 4.32711 13.1036 6.71089 11.6948 8.2561C11.2401 8.70259 11.0299 8.84571 10.7817 8.84571C10.6594 8.84571 10.4694 8.70259 10.4694 8.29486V4.48961C10.4694 4.00063 10.33 3.78223 9.91776 3.78223H6.84225C6.52993 3.78223 6.34433 4.01032 6.34433 4.22276C6.34433 4.68639 7.04873 4.79298 7.12178 6.09743V8.9277C7.12178 9.54787 7.00922 9.66192 6.75951 9.66192C6.09462 9.66192 4.48084 7.26845 3.52449 4.52911C3.33143 3.99765 3.14285 3.78297 2.6412 3.78297H0.684529C0.126227 3.78297 0.0136719 4.04013 0.0136719 4.32786C0.0136719 4.83622 0.678566 7.36386 3.10558 10.7032C4.72309 12.9827 7.00102 14.2178 9.07323 14.2178C10.3188 14.2178 10.4708 13.9435 10.4708 13.4716C10.4708 11.2936 10.3583 11.0879 10.9822 11.0879C11.2714 11.0879 11.7693 11.231 12.9321 12.3304C14.2612 13.6341 14.4796 14.2178 15.2235 14.2178H17.1794C17.737 14.2178 18.0195 13.9435 17.857 13.4023C17.485 12.2641 14.9716 9.92281 14.8583 9.76627Z" fill="#1E2123"/>
</g>
<defs>
<clipPath id="clip0_203_822">
<rect width="17.8895" height="17.8895" fill="white" transform="translate(0.0136719 0.0556641)"/>
</clipPath>
</defs>
</svg>
