<svg width="16" height="15" viewBox="0 0 16 15" fill="none" xmlns="http://www.w3.org/2000/svg">
<path d="M10.7272 0L5.27265 0C4.33174 0 3.56812 0.763626 3.56812 1.70454V13.2955C3.56812 14.2364 4.33174 15 5.27265 15H10.7272C11.6681 15 12.4317 14.2364 12.4317 13.2955V1.70454C12.4317 0.763626 11.6681 0 10.7272 0ZM7.99995 14.3182C7.43403 14.3182 6.97722 13.8614 6.97722 13.2955C6.97722 12.7295 7.43403 12.2727 7.99995 12.2727C8.56587 12.2727 9.02267 12.7295 9.02267 13.2955C9.02267 13.8614 8.56584 14.3182 7.99995 14.3182ZM11.0681 11.5909H4.93176V2.04546H11.0681V11.5909Z" fill="#664EF9"/>
</svg>
