<svg width="34" height="34" viewBox="0 0 34 34" fill="none" xmlns="http://www.w3.org/2000/svg">
<rect x="0.14502" width="33" height="33" rx="16.5" transform="rotate(0.251496 0.14502 0)" fill="#EB5757" fill-opacity="0.1"/>
<g clip-path="url(#clip0_230_216)">
<path d="M16.59 12.554L16.1874 11.992C15.9334 11.6376 15.6482 11.3382 15.3376 11.0959L15.3376 11.0958C14.7275 10.6197 14.0427 10.3811 13.2898 10.3778C12.2694 10.3733 11.3359 10.7759 10.6521 11.5111L16.59 12.554ZM16.59 12.554L16.9977 11.9956M16.59 12.554L16.9977 11.9956M16.9977 11.9956C17.2548 11.6433 17.5425 11.3465 17.8551 11.1069C18.4695 10.6361 19.1564 10.4035 19.9093 10.4068C20.9297 10.4113 21.8595 10.8221 22.5369 11.5633C23.208 12.2977 23.5868 13.3119 23.5819 14.4308C23.5769 15.5559 23.1597 16.6062 22.1947 17.7602L22.1946 17.7603C21.3158 18.8114 20.0443 19.8874 18.5164 21.1779L18.5163 21.1779L18.5028 21.1894C17.9882 21.6241 17.4033 22.1182 16.7963 22.6444L16.796 22.6446C16.7269 22.7046 16.6379 22.7378 16.5454 22.7374C16.4528 22.7369 16.3642 22.7031 16.2953 22.6422L16.295 22.6419C15.688 22.1065 15.1037 21.6041 14.5903 21.1626L14.5885 21.161L14.5884 21.161M16.9977 11.9956L14.5884 21.161M14.5884 21.161C13.0717 19.8569 11.8097 18.7697 10.9401 17.711C9.98514 16.5483 9.57708 15.4944 9.58201 14.3695C9.58693 13.2505 9.97459 12.2396 10.652 11.5111L14.5884 21.161Z" stroke="#EB5757"/>
</g>
<defs>
<clipPath id="clip0_230_216">
<rect width="15" height="15" fill="white" transform="translate(9.10547 9.03906) rotate(0.251496)"/>
</clipPath>
</defs>
</svg>
