<svg width="16" height="16" viewBox="0 0 16 16" fill="none" xmlns="http://www.w3.org/2000/svg">
<g clip-path="url(#clip0_230_217)">
<path d="M7.59003 3.55401L7.18735 2.992C6.93341 2.63758 6.64821 2.33821 6.33762 2.09585L6.3376 2.09583C5.72748 1.61967 5.04269 1.38107 4.28983 1.37776C3.26936 1.37328 2.33591 1.7759 1.65206 2.51107L7.59003 3.55401ZM7.59003 3.55401L7.99765 2.99558M7.59003 3.55401L7.99765 2.99558M7.99765 2.99558C8.25481 2.64328 8.54252 2.34654 8.85511 2.10691C9.46952 1.63609 10.1564 1.40351 10.9093 1.40682C11.9297 1.4113 12.8595 1.82209 13.5369 2.56327C14.208 3.29769 14.5868 4.31189 14.5819 5.43081C14.5769 6.55587 14.1597 7.60618 13.1947 8.76024L13.1946 8.76027C12.3158 9.8114 11.0443 10.8874 9.51639 12.1779L9.51634 12.1779L9.50278 12.1894C8.98817 12.6241 8.40334 13.1182 7.79626 13.6444L7.796 13.6446C7.72689 13.7046 7.63787 13.7378 7.54535 13.7374C7.45284 13.7369 7.36422 13.7031 7.29534 13.6422L7.295 13.6419C6.68804 13.1065 6.10372 12.6041 5.59033 12.1626L5.58845 12.161L5.58843 12.161M7.99765 2.99558L5.58843 12.161M5.58843 12.161C4.07165 10.8569 2.8097 9.76967 1.94006 8.71096C0.985137 7.54832 0.577077 6.49438 0.582015 5.36947C0.586926 4.25045 0.974589 3.23962 1.65201 2.51112L5.58843 12.161Z" stroke="#EB5757"/>
</g>
<defs>
<clipPath id="clip0_230_217">
<rect width="15" height="15" fill="white" transform="translate(0.105469 0.0390625) rotate(0.251496)"/>
</clipPath>
</defs>
</svg>
