<svg width="15" height="16" viewBox="0 0 15 16" fill="none" xmlns="http://www.w3.org/2000/svg">
<g clip-path="url(#clip0_203_581)">
<path d="M12.4623 3.17459C11.3634 1.4441 9.54948 0.470703 7.50878 0.470703C5.48552 0.470703 3.67157 1.4441 2.53785 3.17459C1.40413 4.86902 1.1425 7.03212 1.84017 8.92484C2.03203 9.42957 2.32854 9.95232 2.71227 10.421L7.12506 15.7927C7.22971 15.9009 7.33436 15.973 7.49134 15.973C7.64831 15.973 7.75296 15.9009 7.85762 15.7927L12.2878 10.421C12.6716 9.95232 12.9855 9.44759 13.1599 8.92484C13.8576 7.03212 13.596 4.86902 12.4623 3.17459ZM7.50878 9.55575C6.00878 9.55575 4.77041 8.27591 4.77041 6.72568C4.77041 5.17546 6.00878 3.89562 7.50878 3.89562C9.00878 3.89562 10.2471 5.17546 10.2471 6.72568C10.2471 8.27591 9.02622 9.55575 7.50878 9.55575Z" fill="#BDBDBD"/>
</g>
<defs>
<clipPath id="clip0_203_581">
<rect width="15" height="15.5023" fill="white" transform="translate(0 0.470703)"/>
</clipPath>
</defs>
</svg>
