<svg width="15" height="16" viewBox="0 0 15 16" fill="none" xmlns="http://www.w3.org/2000/svg">
<g clip-path="url(#clip0_203_590)">
<path d="M7.501 0.813477C5.35814 0.813477 3.60645 2.56517 3.60645 4.70804C3.60645 6.85091 5.35814 8.6026 7.501 8.6026C9.64387 8.6026 11.3956 6.85091 11.3956 4.70804C11.3956 2.56517 9.64387 0.813477 7.501 0.813477Z" fill="#686868"/>
<path d="M14.1849 11.7145C14.0828 11.4594 13.9468 11.2213 13.7937 11.0002C13.0114 9.84373 11.8039 9.07843 10.4434 8.89136C10.2733 8.87436 10.0863 8.90835 9.95019 9.0104C9.2359 9.53761 8.38558 9.80972 7.5012 9.80972C6.61683 9.80972 5.7665 9.53761 5.05221 9.0104C4.91615 8.90835 4.72907 8.85734 4.55902 8.89136C3.19847 9.07843 1.97399 9.84373 1.20869 11.0002C1.05563 11.2213 0.919565 11.4764 0.817546 11.7145C0.766537 11.8166 0.783529 11.9356 0.834539 12.0376C0.970606 12.2757 1.14066 12.5139 1.29372 12.7179C1.5318 13.0411 1.78691 13.3302 2.07604 13.6023C2.31413 13.8404 2.58623 14.0614 2.85837 14.2825C4.20189 15.286 5.81755 15.8131 7.48421 15.8131C9.15088 15.8131 10.7665 15.2859 12.1101 14.2825C12.3822 14.0785 12.6543 13.8404 12.8924 13.6023C13.1645 13.3302 13.4366 13.041 13.6747 12.7179C13.8448 12.4968 13.9978 12.2757 14.1339 12.0376C14.2189 11.9356 14.2359 11.8165 14.1849 11.7145Z" fill="#686868"/>
</g>
<defs>
<clipPath id="clip0_203_590">
<rect width="15" height="15" fill="white" transform="translate(0 0.813477)"/>
</clipPath>
</defs>
</svg>
