<svg width="156" height="45" viewBox="0 0 156 45" fill="none" xmlns="http://www.w3.org/2000/svg">
<path d="M16.6662 44.8373C26.4673 44.8373 33.4773 39.4467 33.456 31.9893C33.4773 26.5561 30.0256 22.6782 23.6122 21.8686V21.5277C28.4915 20.6541 31.858 17.2024 31.8366 12.3018C31.858 5.4197 25.8281 0.00776649 16.794 0.00776649C7.84517 0.00776649 1.11222 5.24924 0.984375 12.7919H9.82671C9.93324 9.46799 12.9801 7.31601 16.7514 7.31601C20.4801 7.31601 22.973 9.57453 22.9517 12.8558C22.973 16.2862 20.054 18.6086 15.8565 18.6086H11.7869V25.3842H15.8565C20.7997 25.3842 23.8892 27.8558 23.8679 31.3714C23.8892 34.8444 20.9062 37.2308 16.6875 37.2308C12.6179 37.2308 9.57102 35.1001 9.40057 31.9041H0.110796C0.259943 39.5319 7.07812 44.8373 16.6662 44.8373ZM39.4272 36.5703H60.3718V44.2407H69.1928V36.5703H74.6048V29.1768H69.1928V0.604358H57.6445L39.4272 29.3046V36.5703ZM60.5423 29.1768H48.717V28.8359L60.2014 10.6612H60.5423V29.1768ZM99.1502 0.604358H90.4783L79.6758 7.44385V15.6257L89.6687 9.36146H89.9244V44.2407H99.1502V0.604358Z" fill="#1E2123"/>
<path d="M136.448 41.8757H144.076V30.6044H155.347V22.9765H144.076V11.7052H136.448V22.9765H125.176V30.6044H136.448V41.8757Z" fill="#664EF9"/>
</svg>
