<svg width="20" height="20" viewBox="0 0 20 20" fill="none" xmlns="http://www.w3.org/2000/svg">
<g opacity="0.3" clip-path="url(#clip0_169_44)">
<path d="M10.0013 0C7.14418 0 4.80859 2.33559 4.80859 5.19275C4.80859 8.04991 7.14418 10.3855 10.0013 10.3855C12.8585 10.3855 15.1941 8.04991 15.1941 5.19275C15.1941 2.33559 12.8585 0 10.0013 0Z" fill="#686868"/>
<path d="M18.9132 14.5353C18.7772 14.1951 18.5958 13.8777 18.3917 13.5829C17.3486 12.0409 15.7387 11.0205 13.9246 10.7711C13.6979 10.7484 13.4484 10.7937 13.267 10.9298C12.3146 11.6328 11.1809 11.9956 10.0017 11.9956C8.82252 11.9956 7.68875 11.6328 6.73637 10.9298C6.55494 10.7937 6.30551 10.7257 6.07877 10.7711C4.26471 11.0205 2.63207 12.0409 1.61167 13.5829C1.40759 13.8777 1.22617 14.2178 1.09014 14.5353C1.02213 14.6713 1.04479 14.8301 1.1128 14.9661C1.29422 15.2836 1.52096 15.6011 1.72504 15.8732C2.04249 16.304 2.38263 16.6895 2.76814 17.0523C3.08559 17.3697 3.44839 17.6645 3.81124 17.9593C5.6026 19.2972 7.75681 20.0001 9.97903 20.0001C12.2013 20.0001 14.3555 19.2972 16.1468 17.9593C16.5096 17.6872 16.8724 17.3697 17.1899 17.0523C17.5527 16.6895 17.9155 16.304 18.233 15.8732C18.4598 15.5784 18.6639 15.2836 18.8453 14.9661C18.9586 14.8301 18.9812 14.6713 18.9132 14.5353Z" fill="#686868"/>
</g>
<defs>
<clipPath id="clip0_169_44">
<rect width="20" height="20" fill="white"/>
</clipPath>
</defs>
</svg>
