<svg width="18" height="18" viewBox="0 0 18 18" fill="none" xmlns="http://www.w3.org/2000/svg">
<path d="M14.3802 3.58754C13.6798 2.88207 12.8463 2.32277 11.928 1.94212C11.0097 1.56147 10.0249 1.36705 9.03081 1.37015C4.86403 1.37015 1.47261 4.76157 1.47261 8.93121C1.47261 10.2636 1.82167 11.5663 2.4826 12.7108L1.40967 16.6296L5.41814 15.5777C6.52631 16.1813 7.76794 16.498 9.02986 16.4989H9.03272C13.1995 16.4989 16.5938 13.1075 16.5938 8.93789C16.5963 7.94415 16.4019 6.95976 16.0218 6.04159C15.6417 5.12342 15.0834 4.28967 14.3792 3.5885L14.3802 3.58754ZM9.03272 15.2229C7.90653 15.2231 6.80102 14.9203 5.83205 14.3464L5.6022 14.2091L3.22364 14.8319L3.85881 12.5134L3.71003 12.2749C3.07844 11.2743 2.74467 10.1145 2.74773 8.93121C2.74975 7.2642 3.41306 5.66609 4.59208 4.4876C5.77111 3.30911 7.36952 2.64653 9.03653 2.64527C10.7141 2.64527 12.2944 3.30143 13.4799 4.4869C14.0649 5.06979 14.5286 5.76284 14.8442 6.526C15.1598 7.28915 15.3211 8.10728 15.3187 8.93312C15.3158 12.4018 12.4966 15.2219 9.03272 15.2219V15.2229ZM12.4785 10.5144C12.2906 10.419 11.3607 9.96313 11.1881 9.90019C11.0155 9.83724 10.8896 9.80481 10.7618 9.99556C10.6369 10.1834 10.2735 10.6098 10.1629 10.7375C10.0522 10.8625 9.94256 10.8806 9.75468 10.7852C9.5668 10.6899 8.95547 10.4905 8.23446 9.84678C7.67367 9.34608 7.29314 8.72616 7.18251 8.53828C7.07188 8.3504 7.17011 8.24644 7.26644 8.15393C7.35322 8.07001 7.45432 7.93363 7.54969 7.82299C7.64506 7.71236 7.67463 7.63511 7.73757 7.50731C7.80052 7.38238 7.77 7.27175 7.72231 7.17637C7.67463 7.081 7.296 6.15113 7.1415 5.77251C6.98986 5.40246 6.83154 5.45396 6.71519 5.44729C6.60456 5.44157 6.47962 5.44157 6.35468 5.44157C6.22975 5.44157 6.02374 5.48925 5.85112 5.67713C5.6785 5.86502 5.18924 6.32375 5.18924 7.25363C5.18924 8.1835 5.86543 9.08094 5.9608 9.20874C6.05617 9.33368 7.29314 11.244 9.18817 12.0613C9.63833 12.2549 9.99025 12.3713 10.264 12.4609C10.717 12.604 11.128 12.583 11.4532 12.5353C11.8166 12.4819 12.571 12.0794 12.7293 11.6379C12.8876 11.1963 12.8876 10.8186 12.84 10.7404C12.7951 10.6565 12.6702 10.6098 12.4794 10.5134L12.4785 10.5144Z" fill="white"/>
</svg>
