<svg width="18" height="18" viewBox="0 0 18 18" fill="none" xmlns="http://www.w3.org/2000/svg">
<g clip-path="url(#clip0_559_789)">
<path d="M16.3924 16.0714C16.797 16.0714 17.1476 15.9378 17.4456 15.674L12.346 10.5741C12.2236 10.6617 12.105 10.7469 11.993 10.828C11.6113 11.1091 11.3016 11.3285 11.0638 11.4858C10.8259 11.6434 10.5095 11.804 10.1146 11.968C9.71934 12.1321 9.35113 12.214 9.00956 12.214H8.99956H8.98956C8.64795 12.214 8.27975 12.1322 7.88455 11.968C7.48935 11.804 7.17294 11.6434 6.93536 11.4858C6.69754 11.3285 6.38797 11.1092 6.00613 10.828C5.89972 10.7499 5.78172 10.6644 5.65413 10.5728L0.553467 15.674C0.851476 15.9378 1.2023 16.0714 1.60688 16.0714H16.3924Z" fill="white"/>
<path d="M1.01462 7.36276C0.633012 7.10835 0.294611 6.81698 0 6.48877V14.2478L4.49485 9.75298C3.59562 9.1252 2.43702 8.32937 1.01462 7.36276Z" fill="white"/>
<path d="M16.9959 7.36276C15.6278 8.28879 14.4649 9.08598 13.5073 9.75478L18.0003 14.248V6.48877C17.7123 6.81037 17.3775 7.10155 16.9959 7.36276Z" fill="white"/>
<path d="M16.3929 1.92871H1.60741C1.09159 1.92871 0.695013 2.1029 0.4172 2.45091C0.139158 2.79908 0.000366211 3.23451 0.000366211 3.7567C0.000366211 4.1785 0.184551 4.63553 0.552757 5.12792C0.920963 5.62012 1.31276 6.00672 1.72796 6.28793C1.95558 6.44875 2.64199 6.92595 3.7872 7.71935C4.40541 8.14776 4.94303 8.52116 5.40502 8.84338C5.79882 9.11776 6.13843 9.35538 6.41882 9.55257C6.45101 9.57515 6.50163 9.61136 6.56882 9.6594C6.64121 9.7114 6.73281 9.77738 6.84582 9.85898C7.06344 10.0164 7.24422 10.1436 7.38821 10.2408C7.532 10.338 7.70622 10.4466 7.9106 10.5672C8.11482 10.6876 8.30743 10.7782 8.48822 10.8384C8.66904 10.8986 8.83643 10.9288 8.99041 10.9288H9.00041H9.01042C9.16437 10.9288 9.33179 10.8986 9.51264 10.8384C9.6934 10.7782 9.88585 10.6878 10.0902 10.5672C10.2944 10.4466 10.4684 10.3378 10.6127 10.2408C10.7566 10.1436 10.9374 10.0164 11.1551 9.85898C11.2679 9.77738 11.3595 9.71136 11.4318 9.65957C11.4991 9.61133 11.5497 9.57535 11.582 9.55257C11.8005 9.40058 12.1409 9.16394 12.5985 8.84616C13.4313 8.26756 14.6577 7.41595 16.2829 6.28793C16.7717 5.94653 17.1801 5.53453 17.5083 5.05253C17.8359 4.57053 18.0002 4.06494 18.0002 3.53592C18.0002 3.09392 17.8409 2.71571 17.5231 2.40071C17.2049 2.0861 16.8282 1.92871 16.3929 1.92871Z" fill="white"/>
</g>
<defs>
<clipPath id="clip0_559_789">
<rect width="18" height="18" fill="white"/>
</clipPath>
</defs>
</svg>
