<svg width="18" height="18" viewBox="0 0 18 18" fill="none" xmlns="http://www.w3.org/2000/svg">
<path d="M8.90276 1.40754C7.63394 1.42468 4.90384 1.63296 3.37665 3.03228C2.24295 4.15939 1.84682 5.82104 1.80068 7.87884C1.76113 9.92872 1.71499 13.778 5.42587 14.8267V16.4218C5.42587 16.4218 5.40082 17.0611 5.82266 17.1929C6.34337 17.3577 6.63998 16.864 7.13432 16.3367L8.0571 15.2953C10.5947 15.5062 12.5392 15.0191 12.7633 14.9466C13.2774 14.7819 16.1782 14.4121 16.6528 10.5621C17.1405 6.58695 16.4155 4.08227 15.1104 2.94857L15.1038 2.94726C14.7083 2.58474 13.1264 1.43127 9.58693 1.41808C9.58693 1.41808 9.32592 1.40161 8.90276 1.40754ZM8.94692 2.52607C9.30614 2.5241 9.52695 2.53926 9.52695 2.53926C12.5194 2.54585 13.9503 3.44885 14.2865 3.75205C15.3872 4.69394 15.9528 6.95276 15.5388 10.2721C15.1434 13.4887 12.7903 13.693 12.3553 13.8314C12.1707 13.8907 10.457 14.3126 8.30032 14.1741C8.30032 14.1741 6.69271 16.1126 6.19177 16.6136C6.11268 16.6993 6.0204 16.7256 5.96108 16.7124C5.87539 16.6927 5.84903 16.5872 5.85562 16.4422L5.8688 13.7932C2.72411 12.9231 2.90867 9.63936 2.94162 7.92563C2.98117 6.21191 3.30414 4.80665 4.25988 3.85751C5.54979 2.69086 7.86859 2.53267 8.94626 2.52607H8.94692ZM9.18421 4.2398C9.15827 4.23972 9.13257 4.24475 9.10858 4.25461C9.0846 4.26448 9.06279 4.27898 9.04442 4.29729C9.02605 4.3156 9.01148 4.33736 9.00153 4.36131C8.99159 4.38526 8.98647 4.41094 8.98647 4.43688C8.98647 4.48932 9.0073 4.53962 9.04438 4.5767C9.08147 4.61379 9.13176 4.63462 9.18421 4.63462C9.67423 4.62527 10.1613 4.71307 10.6172 4.89294C11.0731 5.07282 11.4888 5.34121 11.8405 5.68263C12.5589 6.3813 12.9089 7.31726 12.9221 8.54323C12.9221 8.5692 12.9272 8.59491 12.9372 8.61891C12.9471 8.6429 12.9617 8.66469 12.98 8.68306C12.9984 8.70142 13.0202 8.71598 13.0442 8.72592C13.0682 8.73586 13.0939 8.74097 13.1198 8.74097V8.73504C13.1723 8.73504 13.2226 8.71421 13.2597 8.67712C13.2968 8.64004 13.3176 8.58975 13.3176 8.5373C13.342 7.96075 13.2489 7.38526 13.0438 6.84588C12.8387 6.30649 12.5259 5.8145 12.1246 5.39986C11.3402 4.63528 10.3502 4.2398 9.18355 4.2398H9.18421ZM6.57802 4.6946C6.43785 4.67462 6.29504 4.70249 6.17266 4.77369H6.16475C5.89451 4.93188 5.64536 5.12962 5.40807 5.39327C5.23011 5.60419 5.13058 5.81445 5.10422 6.01878C5.08871 6.13862 5.09996 6.26041 5.13717 6.37537L5.15036 6.38196C5.35352 6.97922 5.61861 7.55359 5.94131 8.09569C6.35959 8.85488 6.87351 9.55731 7.47048 10.1858L7.49025 10.2121L7.51662 10.2319L7.53639 10.2517L7.55616 10.2715C8.1871 10.8699 8.89139 11.386 9.65218 11.8072C10.5222 12.2818 11.0508 12.5059 11.3672 12.5982V12.6048C11.4595 12.6311 11.5439 12.6443 11.6296 12.6443C11.8996 12.6246 12.1553 12.5151 12.3559 12.3332C12.613 12.1025 12.8173 11.8468 12.9689 11.5765V11.5699C13.1205 11.2865 13.0678 11.0156 12.8503 10.8311C12.4119 10.4476 11.9373 10.1076 11.4331 9.81601C11.097 9.63145 10.7542 9.7435 10.6158 9.92806L10.3192 10.3031C10.1676 10.4877 9.89079 10.4613 9.89079 10.4613L9.88288 10.4679C7.82641 9.94058 7.27933 7.8584 7.27933 7.8584C7.27933 7.8584 7.25297 7.57498 7.44411 7.42997L7.81322 7.13336C7.99119 6.98836 8.11642 6.64561 7.92527 6.30946C7.63404 5.80505 7.29406 5.33041 6.91022 4.89234C6.82673 4.78878 6.70885 4.71862 6.57802 4.6946ZM9.52629 5.28122C9.47385 5.2814 9.42362 5.3024 9.38666 5.3396C9.3497 5.37681 9.32904 5.42717 9.32921 5.47962C9.32939 5.53206 9.35039 5.58229 9.3876 5.61925C9.4248 5.65621 9.47517 5.67687 9.52761 5.6767C10.1872 5.68815 10.8154 5.96074 11.2743 6.43469C11.4813 6.66309 11.6405 6.93066 11.7424 7.22161C11.8443 7.51256 11.8868 7.82098 11.8675 8.12864C11.8677 8.18097 11.8886 8.2311 11.9257 8.26804C11.9627 8.30498 12.0129 8.32572 12.0652 8.32572L12.0718 8.33363C12.0979 8.33363 12.1236 8.3285 12.1477 8.31852C12.1717 8.30854 12.1935 8.29391 12.2119 8.27548C12.2303 8.25705 12.2448 8.23518 12.2547 8.21111C12.2646 8.18704 12.2697 8.16126 12.2696 8.13523C12.2893 7.35088 12.0455 6.69175 11.5643 6.16445C11.0831 5.63715 10.4108 5.34054 9.55397 5.28122C9.54476 5.28057 9.53551 5.28057 9.52629 5.28122ZM9.84926 6.34835C9.82282 6.34757 9.79648 6.352 9.77175 6.3614C9.74702 6.3708 9.72439 6.38498 9.70514 6.40313C9.68589 6.42128 9.6704 6.44304 9.65957 6.46717C9.64873 6.4913 9.64275 6.51733 9.64197 6.54378C9.64119 6.57022 9.64563 6.59656 9.65503 6.62129C9.66443 6.64601 9.6786 6.66865 9.69675 6.6879C9.7149 6.70715 9.73666 6.72263 9.76079 6.73347C9.78492 6.74431 9.81096 6.75029 9.8374 6.75107C10.4899 6.78403 10.8063 7.11359 10.8459 7.79249C10.8476 7.84378 10.8692 7.8924 10.9061 7.92807C10.943 7.96374 10.9923 7.98366 11.0436 7.98364H11.0502C11.0767 7.98281 11.1029 7.97664 11.127 7.9655C11.1511 7.95435 11.1727 7.93847 11.1906 7.91878C11.2084 7.89909 11.2221 7.87601 11.2308 7.85092C11.2395 7.82582 11.2431 7.79922 11.2413 7.77272C11.1952 6.88949 10.714 6.39448 9.85717 6.34835C9.85454 6.34829 9.8519 6.34829 9.84926 6.34835Z" fill="white"/>
</svg>
