<svg width="12" height="12" viewBox="0 0 12 12" fill="none" xmlns="http://www.w3.org/2000/svg">
<path d="M11.7984 5.36427L6.41443 0.458394C6.17811 0.243027 5.82174 0.243051 5.58551 0.458371L0.201486 5.3643C0.0121814 5.5368 -0.0503497 5.80258 0.0421345 6.04138C0.134642 6.28019 0.359876 6.43448 0.615977 6.43448H1.4759V11.3498C1.4759 11.5447 1.63391 11.7027 1.8288 11.7027H4.7799C4.97478 11.7027 5.1328 11.5447 5.1328 11.3498V8.36537H6.86721V11.3498C6.86721 11.5447 7.02523 11.7027 7.22011 11.7027H10.1711C10.366 11.7027 10.524 11.5447 10.524 11.3498V6.43448H11.3841C11.6401 6.43448 11.8654 6.28016 11.9579 6.04138C12.0503 5.80256 11.9877 5.5368 11.7984 5.36427Z" fill="#4E64F9"/>
</svg>
