<svg width="18" height="18" viewBox="0 0 18 18" fill="none" xmlns="http://www.w3.org/2000/svg">
<path d="M8.91036 1.96994C7.73553 1.98581 5.20766 2.17867 3.79359 3.47434C2.74388 4.51795 2.37708 6.05652 2.33436 7.96188C2.29775 9.85992 2.25502 13.4241 5.69102 14.3951V15.872C5.69102 15.872 5.66783 16.464 6.05842 16.5861C6.54056 16.7386 6.8152 16.2815 7.27292 15.7933L8.12735 14.829C10.477 15.0243 12.2774 14.5733 12.4849 14.5062C12.9609 14.3536 15.6469 14.0112 16.0863 10.4464C16.5379 6.76569 15.8666 4.44655 14.6582 3.39683L14.6521 3.39561C14.2859 3.05994 12.8212 1.99191 9.54386 1.97971C9.54386 1.97971 9.30218 1.96445 8.91036 1.96994ZM8.95125 3.00562C9.28387 3.00379 9.48832 3.01783 9.48832 3.01783C12.2591 3.02393 13.5841 3.86005 13.8953 4.14079C14.9145 5.01291 15.4381 7.10441 15.0549 10.1779C14.6887 13.1562 12.5099 13.3454 12.1071 13.4735C11.9362 13.5284 10.3495 13.919 8.35255 13.7909C8.35255 13.7909 6.86402 15.5858 6.40019 16.0496C6.32696 16.1289 6.24151 16.1534 6.18659 16.1411C6.10725 16.1228 6.08284 16.0252 6.08894 15.8909L6.10114 13.4381C3.1894 12.6325 3.36028 9.592 3.3908 8.00522C3.42741 6.41843 3.72646 5.11727 4.6114 4.23843C5.80576 3.1582 7.9528 3.01173 8.95064 3.00562H8.95125ZM9.17096 4.59241C9.14695 4.59233 9.12315 4.59699 9.10094 4.60612C9.07873 4.61526 9.05854 4.62869 9.04153 4.64564C9.02452 4.66259 9.01103 4.68274 9.00182 4.70492C8.99261 4.7271 8.98787 4.75087 8.98787 4.77489C8.98787 4.82345 9.00716 4.87002 9.0415 4.90435C9.07583 4.93869 9.1224 4.95798 9.17096 4.95798C9.62469 4.94932 10.0756 5.03062 10.4978 5.19717C10.9199 5.36372 11.3049 5.61223 11.6305 5.92836C12.2957 6.57528 12.6198 7.44191 12.632 8.57707C12.632 8.60111 12.6367 8.62492 12.6459 8.64714C12.6551 8.66935 12.6686 8.68953 12.6856 8.70653C12.7026 8.72354 12.7228 8.73702 12.745 8.74622C12.7672 8.75542 12.791 8.76016 12.8151 8.76016V8.75467C12.8636 8.75467 12.9102 8.73538 12.9445 8.70104C12.9789 8.6667 12.9982 8.62014 12.9982 8.57158C13.0208 8.03774 12.9345 7.50487 12.7446 7.00544C12.5547 6.50601 12.2651 6.05046 11.8935 5.66654C11.1673 4.95859 10.2506 4.59241 9.17035 4.59241H9.17096ZM6.75783 5.01352C6.62804 4.99502 6.49581 5.02082 6.38249 5.08675H6.37517C6.12495 5.23323 5.89425 5.41632 5.67454 5.66044C5.50976 5.85573 5.41761 6.05042 5.3932 6.23961C5.37883 6.35057 5.38926 6.46334 5.42371 6.56979L5.43592 6.57589C5.62403 7.12891 5.86949 7.66074 6.16828 8.16267C6.55558 8.86563 7.03143 9.51603 7.58418 10.0979L7.60249 10.1224L7.6269 10.1407L7.64521 10.159L7.66352 10.1773C8.24771 10.7314 8.89984 11.2092 9.60428 11.5993C10.4099 12.0387 10.8993 12.2462 11.1923 12.3316V12.3377C11.2777 12.3622 11.3558 12.3744 11.4352 12.3744C11.6852 12.3561 11.922 12.2547 12.1077 12.0863C12.3458 11.8727 12.5349 11.6359 12.6753 11.3857V11.3796C12.8157 11.1171 12.7669 10.8663 12.5655 10.6954C12.1596 10.3404 11.7201 10.0256 11.2533 9.75556C10.9421 9.58468 10.6247 9.68843 10.4965 9.85931L10.2219 10.2066C10.0815 10.3775 9.82521 10.353 9.82521 10.353L9.81788 10.3591C7.91374 9.87091 7.40719 7.94297 7.40719 7.94297C7.40719 7.94297 7.38278 7.68054 7.55977 7.54627L7.90153 7.27163C8.06632 7.13737 8.18227 6.82001 8.00529 6.50876C7.73562 6.04171 7.42083 5.60223 7.06542 5.19661C6.98811 5.10073 6.87897 5.03576 6.75783 5.01352ZM9.48771 5.55669C9.43915 5.55685 9.39264 5.57629 9.35842 5.61074C9.3242 5.64519 9.30507 5.69183 9.30523 5.74039C9.30539 5.78895 9.32484 5.83545 9.35929 5.86967C9.39374 5.90389 9.44037 5.92303 9.48893 5.92287C10.0997 5.93347 10.6813 6.18587 11.1062 6.62471C11.2979 6.83619 11.4453 7.08395 11.5397 7.35334C11.634 7.62274 11.6734 7.90831 11.6555 8.19319C11.6557 8.24164 11.675 8.28806 11.7093 8.32226C11.7437 8.35646 11.7901 8.37567 11.8386 8.37567L11.8447 8.38299C11.8688 8.38299 11.8926 8.37824 11.9149 8.369C11.9372 8.35976 11.9574 8.34622 11.9744 8.32915C11.9914 8.31209 12.0049 8.29183 12.014 8.26955C12.0232 8.24726 12.0279 8.22339 12.0278 8.19929C12.0461 7.47303 11.8203 6.86273 11.3748 6.37449C10.9292 5.88625 10.3067 5.61161 9.51334 5.55669C9.50481 5.55609 9.49624 5.55609 9.48771 5.55669ZM9.78676 6.54476C9.76227 6.54404 9.73788 6.54815 9.71499 6.55686C9.69209 6.56556 9.67113 6.57869 9.65331 6.59549C9.63549 6.61229 9.62115 6.63244 9.61111 6.65479C9.60107 6.67713 9.59554 6.70123 9.59482 6.72572C9.59409 6.7502 9.5982 6.77459 9.60691 6.79749C9.61561 6.82038 9.62874 6.84134 9.64554 6.85917C9.66234 6.87699 9.68249 6.89133 9.70484 6.90136C9.72718 6.9114 9.75129 6.91694 9.77577 6.91766C10.38 6.94817 10.6729 7.25332 10.7095 7.88194C10.7111 7.92943 10.7311 7.97445 10.7653 8.00747C10.7994 8.0405 10.8451 8.05895 10.8926 8.05892H10.8987C10.9233 8.05816 10.9475 8.05245 10.9698 8.04213C10.9922 8.03181 11.0122 8.0171 11.0287 7.99887C11.0452 7.98064 11.0579 7.95927 11.066 7.93603C11.0741 7.9128 11.0774 7.88817 11.0757 7.86363C11.033 7.04582 10.5875 6.58749 9.79408 6.54476C9.79164 6.54472 9.7892 6.54472 9.78676 6.54476Z" fill="white"/>
</svg>
